<svg width="754" height="295" viewBox="0 0 754 295" fill="none" xmlns="http://www.w3.org/2000/svg">
<path d="M340.889 183.556C358.992 183.556 373.667 167.336 373.667 147.327V113.515V111.099H340.889C322.786 111.099 308.111 127.319 308.111 147.327C308.111 167.336 322.786 183.556 340.889 183.556Z" fill="black"/>
<path d="M373.667 0L373.667 113.515M373.667 147.327C373.667 167.336 358.992 183.556 340.889 183.556C322.786 183.556 308.111 167.336 308.111 147.327C308.111 127.319 322.786 111.099 340.889 111.099H373.667V147.327Z" stroke="black" stroke-width="1.31111"/>
<path d="M635.889 111.444C617.786 111.444 603.111 127.664 603.111 147.673V181.485V183.901H635.889C653.992 183.901 668.667 167.681 668.667 147.673C668.667 127.664 653.992 111.444 635.889 111.444Z" fill="black"/>
<path d="M603.111 295L603.111 181.485M603.111 147.673C603.111 127.664 617.786 111.444 635.889 111.444C653.992 111.444 668.667 127.664 668.667 147.673C668.667 167.681 653.992 183.901 635.889 183.901H603.111V147.673Z" stroke="black" stroke-width="1.31111"/>
<path d="M35.5967 183.345C27.293 183.345 20.4533 181.554 15.0778 177.97C9.74593 174.386 6.46815 169.404 5.24444 163.023L15.0778 161.384C16.1267 165.405 18.5085 168.617 22.2233 171.021C25.9819 173.381 30.6144 174.561 36.1211 174.561C41.4967 174.561 45.7359 173.447 48.8389 171.218C51.9419 168.945 53.4933 165.864 53.4933 161.974C53.4933 159.789 52.9907 158.019 51.9856 156.664C51.0241 155.266 49.0356 153.977 46.02 152.797C43.0044 151.617 38.503 150.218 32.5156 148.601C26.0911 146.853 21.0652 145.105 17.4378 143.357C13.8104 141.608 11.2319 139.598 9.70222 137.325C8.17259 135.009 7.40778 132.19 7.40778 128.869C7.40778 124.848 8.54407 121.33 10.8167 118.314C13.0893 115.255 16.2359 112.895 20.2567 111.234C24.2774 109.53 28.9537 108.678 34.2856 108.678C39.6174 108.678 44.3811 109.552 48.5767 111.3C52.8159 113.004 56.2248 115.408 58.8033 118.511C61.3818 121.614 62.9115 125.22 63.3922 129.328L53.5589 131.098C52.9033 126.946 50.8274 123.668 47.3311 121.264C43.8785 118.817 39.4863 117.55 34.1544 117.462C29.1285 117.331 25.0422 118.292 21.8956 120.347C18.7489 122.357 17.1756 125.045 17.1756 128.41C17.1756 130.289 17.7437 131.906 18.88 133.261C20.0163 134.572 22.0704 135.818 25.0422 136.998C28.0578 138.178 32.3407 139.467 37.8911 140.865C44.403 142.526 49.5163 144.274 53.2311 146.11C56.9459 147.945 59.59 150.109 61.1633 152.6C62.7367 155.091 63.5233 158.172 63.5233 161.843C63.5233 168.53 61.0322 173.796 56.05 177.642C51.1115 181.444 44.2937 183.345 35.5967 183.345ZM107.628 183.411C100.592 183.411 94.5823 181.816 89.6001 178.625C84.6179 175.435 80.7938 171.021 78.1279 165.383C75.462 159.745 74.129 153.277 74.129 145.979C74.129 138.549 75.4838 132.037 78.1934 126.443C80.9031 120.849 84.749 116.501 89.7312 113.398C94.7571 110.251 100.723 108.678 107.628 108.678C114.708 108.678 120.739 110.273 125.721 113.463C130.747 116.61 134.571 121.002 137.193 126.64C139.859 132.234 141.192 138.68 141.192 145.979C141.192 153.408 139.859 159.942 137.193 165.58C134.528 171.174 130.682 175.544 125.656 178.691C120.63 181.838 114.62 183.411 107.628 183.411ZM107.628 174.168C115.495 174.168 121.351 171.567 125.197 166.367C129.043 161.122 130.966 154.326 130.966 145.979C130.966 137.413 129.021 130.595 125.131 125.525C121.285 120.456 115.451 117.921 107.628 117.921C102.34 117.921 97.9694 119.123 94.5168 121.527C91.1079 123.887 88.5512 127.186 86.8468 131.425C85.186 135.621 84.3557 140.472 84.3557 145.979C84.3557 154.501 86.3223 161.341 90.2557 166.498C94.189 171.611 99.9797 174.168 107.628 174.168ZM182.728 183.214C178.489 183.214 174.774 182.559 171.583 181.248C168.437 179.937 165.749 178.167 163.52 175.938C161.335 173.709 159.565 171.174 158.21 168.333C156.855 165.449 155.872 162.411 155.26 159.221C154.648 155.987 154.342 152.775 154.342 149.584V110.644H164.045V146.765C164.045 150.655 164.416 154.261 165.159 157.582C165.902 160.904 167.082 163.81 168.699 166.301C170.36 168.748 172.479 170.65 175.058 172.004C177.68 173.359 180.849 174.037 184.563 174.037C187.972 174.037 190.966 173.447 193.545 172.267C196.167 171.087 198.352 169.404 200.1 167.219C201.892 164.99 203.247 162.302 204.165 159.155C205.082 155.965 205.541 152.381 205.541 148.404L212.359 149.912C212.359 157.167 211.092 163.264 208.557 168.202C206.022 173.141 202.526 176.877 198.068 179.412C193.61 181.947 188.497 183.214 182.728 183.214ZM206.525 181.444V164.007H205.541V110.644H215.178V181.444H206.525ZM284.634 181.444V145.323C284.634 141.39 284.263 137.784 283.52 134.507C282.777 131.185 281.575 128.301 279.914 125.853C278.297 123.362 276.177 121.439 273.555 120.084C270.977 118.73 267.83 118.052 264.115 118.052C260.706 118.052 257.691 118.642 255.068 119.822C252.49 121.002 250.305 122.707 248.513 124.935C246.765 127.121 245.432 129.787 244.514 132.933C243.596 136.08 243.137 139.664 243.137 143.684L236.32 142.177C236.32 134.922 237.587 128.825 240.122 123.887C242.657 118.948 246.153 115.211 250.611 112.677C255.068 110.142 260.182 108.874 265.951 108.874C270.19 108.874 273.883 109.53 277.03 110.841C280.22 112.152 282.908 113.922 285.093 116.151C287.322 118.38 289.114 120.937 290.468 123.821C291.823 126.662 292.807 129.699 293.418 132.933C294.03 136.124 294.336 139.314 294.336 142.504V181.444H284.634ZM233.435 181.444V110.644H242.154V128.082H243.137V181.444H233.435ZM416.51 183.345C408.207 183.345 401.367 181.554 395.991 177.97C390.66 174.386 387.382 169.404 386.158 163.023L395.991 161.384C397.04 165.405 399.422 168.617 403.137 171.021C406.895 173.381 411.528 174.561 417.035 174.561C422.41 174.561 426.65 173.447 429.752 171.218C432.855 168.945 434.407 165.864 434.407 161.974C434.407 159.789 433.904 158.019 432.899 156.664C431.938 155.266 429.949 153.977 426.934 152.797C423.918 151.617 419.417 150.218 413.429 148.601C407.005 146.853 401.979 145.105 398.351 143.357C394.724 141.608 392.145 139.598 390.616 137.325C389.086 135.009 388.321 132.19 388.321 128.869C388.321 124.848 389.458 121.33 391.73 118.314C394.003 115.255 397.15 112.895 401.17 111.234C405.191 109.53 409.867 108.678 415.199 108.678C420.531 108.678 425.295 109.552 429.49 111.3C433.73 113.004 437.138 115.408 439.717 118.511C442.295 121.614 443.825 125.22 444.306 129.328L434.472 131.098C433.817 126.946 431.741 123.668 428.245 121.264C424.792 118.817 420.4 117.55 415.068 117.462C410.042 117.331 405.956 118.292 402.809 120.347C399.662 122.357 398.089 125.045 398.089 128.41C398.089 130.289 398.657 131.906 399.794 133.261C400.93 134.572 402.984 135.818 405.956 136.998C408.971 138.178 413.254 139.467 418.805 140.865C425.317 142.526 430.43 144.274 434.145 146.11C437.86 147.945 440.504 150.109 442.077 152.6C443.65 155.091 444.437 158.172 444.437 161.843C444.437 168.53 441.946 173.796 436.964 177.642C432.025 181.444 425.207 183.345 416.51 183.345ZM488.345 183.411C481.221 183.411 475.19 181.816 470.251 178.625C465.313 175.435 461.554 171.043 458.976 165.449C456.441 159.811 455.13 153.343 455.043 146.044C455.13 138.615 456.485 132.103 459.107 126.509C461.729 120.871 465.51 116.501 470.448 113.398C475.387 110.251 481.374 108.678 488.41 108.678C495.578 108.678 501.806 110.426 507.094 113.922C512.426 117.418 516.075 122.204 518.041 128.279L508.601 131.294C506.941 127.055 504.297 123.777 500.669 121.461C497.086 119.101 492.977 117.921 488.345 117.921C483.144 117.921 478.839 119.123 475.43 121.527C472.021 123.887 469.487 127.186 467.826 131.425C466.165 135.665 465.313 140.538 465.269 146.044C465.357 154.523 467.323 161.341 471.169 166.498C475.015 171.611 480.74 174.168 488.345 174.168C493.152 174.168 497.238 173.075 500.604 170.89C504.013 168.661 506.591 165.427 508.339 161.188L518.041 164.072C515.419 170.365 511.573 175.173 506.504 178.494C501.434 181.772 495.381 183.411 488.345 183.411ZM551.446 183.411C546.114 183.411 541.635 182.45 538.007 180.527C534.424 178.604 531.736 176.047 529.944 172.857C528.152 169.666 527.256 166.192 527.256 162.433C527.256 158.587 528.021 155.31 529.551 152.6C531.124 149.847 533.244 147.596 535.909 145.848C538.619 144.1 541.744 142.767 545.284 141.849C548.868 140.975 552.823 140.21 557.149 139.554C561.52 138.855 565.781 138.265 569.933 137.784C574.128 137.26 577.799 136.757 580.946 136.277L577.537 138.374C577.668 131.382 576.314 126.203 573.473 122.838C570.632 119.472 565.694 117.79 558.657 117.79C553.806 117.79 549.698 118.882 546.333 121.068C543.011 123.253 540.673 126.705 539.318 131.425L529.944 128.672C531.561 122.335 534.817 117.418 539.712 113.922C544.606 110.426 550.965 108.678 558.788 108.678C565.256 108.678 570.741 109.901 575.243 112.349C579.788 114.752 583 118.249 584.879 122.838C585.754 124.892 586.322 127.186 586.584 129.721C586.846 132.256 586.977 134.834 586.977 137.457V181.444H578.389V163.679L580.881 164.728C578.477 170.802 574.74 175.435 569.671 178.625C564.601 181.816 558.526 183.411 551.446 183.411ZM552.561 175.085C557.062 175.085 560.995 174.277 564.361 172.66C567.726 171.043 570.435 168.836 572.489 166.039C574.544 163.198 575.876 160.008 576.488 156.468C577.013 154.195 577.297 151.704 577.341 148.994C577.384 146.241 577.406 144.187 577.406 142.832L581.077 144.733C577.799 145.17 574.238 145.607 570.392 146.044C566.589 146.481 562.831 146.984 559.116 147.552C555.445 148.12 552.124 148.798 549.152 149.584C547.141 150.152 545.196 150.961 543.317 152.01C541.438 153.015 539.886 154.37 538.663 156.074C537.483 157.779 536.893 159.898 536.893 162.433C536.893 164.487 537.395 166.476 538.401 168.399C539.449 170.322 541.11 171.917 543.383 173.184C545.699 174.452 548.758 175.085 552.561 175.085ZM712.746 183.411C705.84 183.411 699.853 181.881 694.783 178.822C689.757 175.763 685.846 171.458 683.049 165.908C680.252 160.357 678.853 153.845 678.853 146.372C678.853 138.637 680.23 131.95 682.983 126.312C685.737 120.674 689.604 116.326 694.587 113.267C699.613 110.207 705.534 108.678 712.352 108.678C719.345 108.678 725.31 110.295 730.249 113.529C735.187 116.719 738.924 121.308 741.459 127.295C743.994 133.283 745.152 140.428 744.933 148.732H735.1V145.323C734.925 136.145 732.937 129.218 729.134 124.542C725.376 119.866 719.869 117.528 712.614 117.528C705.01 117.528 699.176 119.997 695.111 124.935C691.09 129.874 689.08 136.91 689.08 146.044C689.08 154.96 691.09 161.887 695.111 166.825C699.176 171.72 704.923 174.168 712.352 174.168C717.422 174.168 721.836 173.01 725.594 170.693C729.397 168.333 732.39 164.946 734.576 160.532L743.557 164.007C740.76 170.169 736.63 174.954 731.167 178.363C725.747 181.728 719.607 183.411 712.746 183.411ZM685.671 148.732V140.669H739.754V148.732H685.671Z" fill="black"/>
</svg>
